<svg xmlns="http://www.w3.org/2000/svg" width="256" height="256" viewBox="0 0 100 100"><rect width="100" height="100" rx="20" fill="#7d6ee7"></rect><path d="M62.22 81.99L49.38 57.34L36.99 57.34L36.99 81.99L25.87 81.99L25.87 18.01L48.37 18.01Q59.45 18.01 65.47 22.97Q71.49 27.94 71.49 37.34L71.49 37.34Q71.49 43.76 68.39 48.09Q65.29 52.42 59.76 54.75L59.76 54.75L74.13 81.42L74.13 81.99L62.22 81.99ZM36.99 26.97L36.99 48.42L48.42 48.42Q54.04 48.42 57.21 45.58Q60.37 42.75 60.37 37.83L60.37 37.83Q60.37 32.69 57.45 29.87Q54.53 27.06 48.73 26.97L48.73 26.97L36.99 26.97Z" fill="#fff"></path></svg>