<svg width="240" height="240" viewBox="0 0 240 240" fill="none" xmlns="http://www.w3.org/2000/svg">
  <path
    d="M23.3 3.21339H20.8V0.702929C20.8 0.301255 20.5 0 20.1 0H0.7C0.3 0 0 0.301255 0 0.702929V13.2552V20.0837C0 20.4854 0.3 20.7866 0.7 20.7866H3.2V23.2971C3.2 23.6987 3.5 24 3.9 24H23.3C23.7 24 24 23.6987 24 23.2971V20.5858V3.91632C24 3.51464 23.7 3.21339 23.3 3.21339ZM22.6 4.61925V18.9791L20.8 17.1715V4.61925H22.6ZM19.4 1.40586V3.91632V15.6653L13.8 9.94142C13.7 9.841 13.5 9.74059 13.3 9.74059C13.1 9.74059 12.9 9.841 12.8 9.94142L11.2 11.5481L7.6 8.03347C7.3 7.73222 7 7.73222 6.7 7.93305L1.4 11.8494V1.40586H19.4ZM1.4 13.6569L4.8 11.1464C4.8 11.1464 4.8 11.2469 4.9 11.2469L7.3 13.6569C7.4 13.7573 7.6 13.8577 7.8 13.8577C8 13.8577 8.2 13.7573 8.3 13.6569C8.6 13.3556 8.6 12.954 8.3 12.6527L5.9 10.2427L7 9.43933L10.6 13.0544L13.9 16.3682C14 16.4686 14.2 16.569 14.4 16.569C14.6 16.569 14.8 16.4686 14.9 16.3682C15.2 16.0669 15.2 15.6653 14.9 15.364L12.1 12.5523L13.2 11.4477L19.3 17.6736V19.4812H3.9H1.4V13.6569ZM22.6 22.6946H4.6V20.887H20C20.1 20.887 20.2 20.887 20.3 20.7866C20.4 20.7866 20.5 20.6862 20.5 20.5858C20.5 20.4854 20.6 20.4854 20.6 20.3849C20.6 20.3849 20.6 20.2845 20.6 20.1841V20.0837V19.0795L22.4 20.887V22.6946H22.6Z"
    fill="#222222"></path>
  <path
    d="M13.6 7.93309C14.9 7.93309 15.9 6.92891 15.9 5.62347C15.9 4.31803 14.9 3.31384 13.6 3.31384C12.3 3.31384 11.3 4.31803 11.3 5.62347C11.3 6.82849 12.3 7.93309 13.6 7.93309ZM13.6 4.61928C14.1 4.61928 14.5 5.02096 14.5 5.52305C14.5 6.02514 14.1 6.42681 13.6 6.42681C13.1 6.42681 12.7 6.02514 12.7 5.52305C12.7 5.02096 13.1 4.61928 13.6 4.61928Z"
    fill="#cccccc"></path>
</svg>